# xmcd CD database file
#
# Track frame offsets:
#	150
#	12793
#	25652
#	35805
#	49402
#	62065
#	73958
#	86760
#	99295
#	109417
#	123818
#	137848
#	150180
#	162214
#	174389
#	188455
#	201022
#	213275
#	224453
#	236843
#	249057
#	260779
#	271869
#	284691
#	295210
#
# Disc length: 4114 seconds
#
# Revision: 1
# Processed by: cddbd v1.5.2PL0 Copyright (c) Steve Scherf et al.
# Submitted via: CDex 1.70beta2
#
DISCID=6d101019
DTITLE=American Country - 25 Number 1s
DYEAR=2005
DGENRE=Country
TTITLE0=Leon Payne - I love You Because
TTITLE1=Red Foley - Chattanoogie Shoe Shine Boy
TTITLE2=Moon Mullican - I'll Sail My Ship Alone
TTITLE3=Lefty Frizzell - If You've Got The Money I've Got The Time
TTITLE4=Hank Snow - The Golden Rocket
TTITLE5=Tennessee Ernie Ford - The Shotgun Boogie
TTITLE6=Hank Snow - The Thumba Boogie
TTITLE7=Hank Williams - Cold Cold Heart
TTITLE8=Eddy Arnold - I Wanna Play House With You
TTITLE9=Lefty Frizzell - Always Late With Your Kisses
TTITLE10=Pee Wee King - Slow Poke
TTITLE11=Hank Thompson - The Wild Side Of Life
TTITLE12=Carl Smith - Are You Teasing Me
TTITLE13=Kitty Wells - It Wasn't God Who Made Honky Tonk Angels
TTITLE14=Webb Pierce - Back Street Affair
TTITLE15=Skeets McDonald - Don't Let The Stars Get In Your Eyes
TTITLE16=Marty Robbins - I'll Go On Alone
TTITLE17=Carlisles - No Help Wanted
TTITLE18=Hank Williams - Your Cheatin' Heart
TTITLE19=Jim Reeves - Mexican Joe
TTITLE20=Jean Shepard and Ferlin Husky - A Dear John Letter
TTITLE21=Webb Pierce - There Stands The Glass
TTITLE22=Jim Reeves - Bimbo
TTITLE23=Johnnie and Jack - Oh Baby Mine
TTITLE24=Kitty Wells and Red Foley - One By One
EXTD=2005 YEAR: 2005
EXTT0=
EXTT1=
EXTT2=
EXTT3=
EXTT4=
EXTT5=
EXTT6=
EXTT7=
EXTT8=
EXTT9=
EXTT10=
EXTT11=
EXTT12=
EXTT13=
EXTT14=
EXTT15=
EXTT16=
EXTT17=
EXTT18=
EXTT19=
EXTT20=
EXTT21=
EXTT22=
EXTT23=
EXTT24=
PLAYORDER=
